<?xml version="1.0" encoding="UTF-8" standalone="no"?>
<svg width="240px" height="240px" viewBox="0 0 240 240" version="1.1" xmlns="http://www.w3.org/2000/svg" xmlns:xlink="http://www.w3.org/1999/xlink">
    <!-- Generator: Sketch 3.6.1 (26313) - http://www.bohemiancoding.com/sketch -->
    <title>logo</title>
    <desc>Created with Sketch.</desc>
    <defs></defs>
    <g id="Page-1" stroke="none" stroke-width="1" fill="none" fill-rule="evenodd">
        <g id="logo">
            <circle id="Oval" fill="#FFFFFF" cx="120" cy="120.9" r="107.4"></circle>
            <path d="M140,149.2 L81,149.2 C72.4,149.2 67.4,154.5 67.4,162.1 C67.4,168.9 72,173.7 78.6,173.7 C86.3,173.7 90.7,168.4 91.1,160.8 L108.2,160.8 C107.3,179.4 95.7,189.3 78.4,189.3 C62.2,189.3 50.1,178.3 50.1,161.9 C50.1,144.8 62.8,132.9 81.9,132.9 L140.3,132.9 C160,132.9 175,118.4 175,98.9 C175,79.2 161.6,65.3 142.5,65.3 C123.6,65.3 108.3,79.1 108.3,104.6 L108.3,121.3 L91,121.3 L91,104.6 C91,70.8 112.7,48.9 142.8,48.9 C171.5,48.9 192.4,69.5 192.4,98.7 C192.6,127.9 170.2,149.2 140,149.2 L140,149.2 Z M120,240 C187.1,240 240,186.9 240,120 C240,53.1 187.1,0 120,0 C52.9,0 0,53.3 0,120 C0,186.9 52.9,240 120,240 L120,240 Z" id="Shape" fill="#169CEE"></path>
        </g>
    </g>
</svg>